  0
SECTION
  2
HEADER
  9
$ACADVER
  1
AC1024
  9
$ACADMAINTVER
 70
     6
  9
$DWGCODEPAGE
  3
ANSI_1252
  9
$INSBASE
 10
0.0
 20
0.0
 30
0.0
  9
$EXTMIN
 10
1.000000000000000E+20
 20
1.000000000000000E+20
 30
1.000000000000000E+20
  9
$EXTMAX
 10
-1.000000000000000E+20
 20
-1.000000000000000E+20
 30
-1.000000000000000E+20
  9
$LIMMIN
 10
0.0
 20
0.0
  9
$LIMMAX
 10
12.0
 20
9.0
  9
$ORTHOMODE
 70
     0
  9
$REGENMODE
 70
     1
  9
$FILLMODE
 70
     1
  9
$QTEXTMODE
 70
     0
  9
$MIRRTEXT
 70
     1
  9
$LTSCALE
 40
1.0
  9
$ATTMODE
 70
     1
  9
$TEXTSIZE
 40
0.2
  9
$TRACEWID
 40
0.05
  9
$TEXTSTYLE
  7
Standard
  9
$CLAYER
  8
0
  9
$CELTYPE
  6
ByLayer
  9
$CECOLOR
 62
   256
  9
$CELTSCALE
 40
1.0
  9
$DISPSILH
 70
     0
  9
$DIMSCALE
 40
1.0
  9
$DIMASZ
 40
0.18
  9
$DIMEXO
 40
0.0625
  9
$DIMDLI
 40
0.38
  9
$DIMRND
 40
0.0
  9
$DIMDLE
 40
0.0
  9
$DIMEXE
 40
0.18
  9
$DIMTP
 40
0.0
  9
$DIMTM
 40
0.0
  9
$DIMTXT
 40
0.18
  9
$DIMCEN
 40
0.09
  9
$DIMTSZ
 40
0.0
  9
$DIMTOL
 70
     0
  9
$DIMLIM
 70
     0
  9
$DIMTIH
 70
     1
  9
$DIMTOH
 70
     1
  9
$DIMSE1
 70
     0
  9
$DIMSE2
 70
     0
  9
$DIMTAD
 70
     0
  9
$DIMZIN
 70
     0
  9
$DIMBLK
  1

  9
$DIMASO
 70
     1
  9
$DIMSHO
 70
     1
  9
$DIMPOST
  1

  9
$DIMAPOST
  1

  9
$DIMALT
 70
     0
  9
$DIMALTD
 70
     2
  9
$DIMALTF
 40
25.4
  9
$DIMLFAC
 40
1.0
  9
$DIMTOFL
 70
     0
  9
$DIMTVP
 40
0.0
  9
$DIMTIX
 70
     0
  9
$DIMSOXD
 70
     0
  9
$DIMSAH
 70
     0
  9
$DIMBLK1
  1

  9
$DIMBLK2
  1

  9
$DIMSTYLE
  2
Standard
  9
$DIMCLRD
 70
     0
  9
$DIMCLRE
 70
     0
  9
$DIMCLRT
 70
     0
  9
$DIMTFAC
 40
1.0
  9
$DIMGAP
 40
0.09
  9
$DIMJUST
 70
     0
  9
$DIMSD1
 70
     0
  9
$DIMSD2
 70
     0
  9
$DIMTOLJ
 70
     1
  9
$DIMTZIN
 70
     0
  9
$DIMALTZ
 70
     0
  9
$DIMALTTZ
 70
     0
  9
$DIMUPT
 70
     0
  9
$DIMDEC
 70
     4
  9
$DIMTDEC
 70
     4
  9
$DIMALTU
 70
     2
  9
$DIMALTTD
 70
     2
  9
$DIMTXSTY
  7
Standard
  9
$DIMAUNIT
 70
     0
  9
$DIMADEC
 70
     0
  9
$DIMALTRND
 40
0.0
  9
$DIMAZIN
 70
     0
  9
$DIMDSEP
 70
    46
  9
$DIMATFIT
 70
     3
  9
$DIMFRAC
 70
     0
  9
$DIMLDRBLK
  1

  9
$DIMLUNIT
 70
     2
  9
$DIMLWD
 70
    -2
  9
$DIMLWE
 70
    -2
  9
$DIMTMOVE
 70
     0
  9
$DIMFXL
 40
1.0
  9
$DIMFXLON
 70
     0
  9
$DIMJOGANG
 40
0.7853981633974483
  9
$DIMTFILL
 70
     0
  9
$DIMTFILLCLR
 70
     0
  9
$DIMARCSYM
 70
     0
  9
$DIMLTYPE
  6

  9
$DIMLTEX1
  6

  9
$DIMLTEX2
  6

  9
$DIMTXTDIRECTION
 70
     0
  9
$LUNITS
 70
     2
  9
$LUPREC
 70
     4
  9
$SKETCHINC
 40
0.1
  9
$FILLETRAD
 40
0.5
  9
$AUNITS
 70
     0
  9
$AUPREC
 70
     0
  9
$MENU
  1
.
  9
$ELEVATION
 40
0.0
  9
$PELEVATION
 40
0.0
  9
$THICKNESS
 40
0.0
  9
$LIMCHECK
 70
     0
  9
$CHAMFERA
 40
0.5
  9
$CHAMFERB
 40
0.5
  9
$CHAMFERC
 40
1.0
  9
$CHAMFERD
 40
0.0
  9
$SKPOLY
 70
     0
  9
$TDCREATE
 40
2458437.471167558
  9
$TDUCREATE
 40
2458437.429500891
  9
$TDUPDATE
 40
2458437.471167604
  9
$TDUUPDATE
 40
2458437.429500937
  9
$TDINDWG
 40
0.0000000116
  9
$TDUSRTIMER
 40
0.0000000116
  9
$USRTIMER
 70
     1
  9
$ANGBASE
 50
0.0
  9
$ANGDIR
 70
     0
  9
$PDMODE
 70
     0
  9
$PDSIZE
 40
0.0
  9
$PLINEWID
 40
0.0
  9
$SPLFRAME
 70
     0
  9
$SPLINETYPE
 70
     6
  9
$SPLINESEGS
 70
     8
  9
$HANDSEED
  5
D3
  9
$SURFTAB1
 70
     6
  9
$SURFTAB2
 70
     6
  9
$SURFTYPE
 70
     6
  9
$SURFU
 70
     6
  9
$SURFV
 70
     6
  9
$UCSBASE
  2

  9
$UCSNAME
  2

  9
$UCSORG
 10
0.0
 20
0.0
 30
0.0
  9
$UCSXDIR
 10
1.0
 20
0.0
 30
0.0
  9
$UCSYDIR
 10
0.0
 20
1.0
 30
0.0
  9
$UCSORTHOREF
  2

  9
$UCSORTHOVIEW
 70
     0
  9
$UCSORGTOP
 10
0.0
 20
0.0
 30
0.0
  9
$UCSORGBOTTOM
 10
0.0
 20
0.0
 30
0.0
  9
$UCSORGLEFT
 10
0.0
 20
0.0
 30
0.0
  9
$UCSORGRIGHT
 10
0.0
 20
0.0
 30
0.0
  9
$UCSORGFRONT
 10
0.0
 20
0.0
 30
0.0
  9
$UCSORGBACK
 10
0.0
 20
0.0
 30
0.0
  9
$PUCSBASE
  2

  9
$PUCSNAME
  2

  9
$PUCSORG
 10
0.0
 20
0.0
 30
0.0
  9
$PUCSXDIR
 10
1.0
 20
0.0
 30
0.0
  9
$PUCSYDIR
 10
0.0
 20
1.0
 30
0.0
  9
$PUCSORTHOREF
  2

  9
$PUCSORTHOVIEW
 70
     0
  9
$PUCSORGTOP
 10
0.0
 20
0.0
 30
0.0
  9
$PUCSORGBOTTOM
 10
0.0
 20
0.0
 30
0.0
  9
$PUCSORGLEFT
 10
0.0
 20
0.0
 30
0.0
  9
$PUCSORGRIGHT
 10
0.0
 20
0.0
 30
0.0
  9
$PUCSORGFRONT
 10
0.0
 20
0.0
 30
0.0
  9
$PUCSORGBACK
 10
0.0
 20
0.0
 30
0.0
  9
$USERI1
 70
     0
  9
$USERI2
 70
     0
  9
$USERI3
 70
     0
  9
$USERI4
 70
     0
  9
$USERI5
 70
     0
  9
$USERR1
 40
0.0
  9
$USERR2
 40
0.0
  9
$USERR3
 40
0.0
  9
$USERR4
 40
0.0
  9
$USERR5
 40
0.0
  9
$WORLDVIEW
 70
     1
  9
$SHADEDGE
 70
     3
  9
$SHADEDIF
 70
    70
  9
$TILEMODE
 70
     1
  9
$MAXACTVP
 70
    64
  9
$PINSBASE
 10
0.0
 20
0.0
 30
0.0
  9
$PLIMCHECK
 70
     0
  9
$PEXTMIN
 10
1.000000000000000E+20
 20
1.000000000000000E+20
 30
1.000000000000000E+20
  9
$PEXTMAX
 10
-1.000000000000000E+20
 20
-1.000000000000000E+20
 30
-1.000000000000000E+20
  9
$PLIMMIN
 10
0.0
 20
0.0
  9
$PLIMMAX
 10
12.0
 20
9.0
  9
$UNITMODE
 70
     0
  9
$VISRETAIN
 70
     1
  9
$PLINEGEN
 70
     0
  9
$PSLTSCALE
 70
     1
  9
$TREEDEPTH
 70
  3020
  9
$CMLSTYLE
  2
Standard
  9
$CMLJUST
 70
     0
  9
$CMLSCALE
 40
1.0
  9
$PROXYGRAPHICS
 70
     1
  9
$MEASUREMENT
 70
     0
  9
$CELWEIGHT
370
    -1
  9
$ENDCAPS
280
     0
  9
$JOINSTYLE
280
     0
  9
$LWDISPLAY
290
     1
  9
$INSUNITS
 70
     1
  9
$HYPERLINKBASE
  1

  9
$STYLESHEET
  1

  9
$XEDIT
290
     1
  9
$CEPSNTYPE
380
     0
  9
$PSTYLEMODE
290
     1
  9
$FINGERPRINTGUID
  2
{03BD95DD-B1A4-4777-959E-8D78A4149EE5}
  9
$VERSIONGUID
  2
{FAEB1C32-E019-11D5-929B-00C0DF256EC4}
  9
$EXTNAMES
290
     1
  9
$PSVPSCALE
 40
0.0
  9
$OLESTARTUP
290
     0
  9
$SORTENTS
280
   127
  9
$INDEXCTL
280
     0
  9
$HIDETEXT
280
     1
  9
$XCLIPFRAME
280
     2
  9
$HALOGAP
280
     0
  9
$OBSCOLOR
 70
   257
  9
$OBSLTYPE
280
     0
  9
$INTERSECTIONDISPLAY
280
     0
  9
$INTERSECTIONCOLOR
 70
   257
  9
$DIMASSOC
280
     2
  9
$PROJECTNAME
  1

  9
$CAMERADISPLAY
290
     0
  9
$LENSLENGTH
 40
50.0
  9
$CAMERAHEIGHT
 40
0.0
  9
$STEPSPERSEC
 40
2.0
  9
$STEPSIZE
 40
6.0
  9
$3DDWFPREC
 40
2.0
  9
$PSOLWIDTH
 40
0.25
  9
$PSOLHEIGHT
 40
4.0
  9
$LOFTANG1
 40
1.570796326794897
  9
$LOFTANG2
 40
1.570796326794897
  9
$LOFTMAG1
 40
0.0
  9
$LOFTMAG2
 40
0.0
  9
$LOFTPARAM
 70
     7
  9
$LOFTNORMALS
280
     1
  9
$LATITUDE
 40
37.795
  9
$LONGITUDE
 40
-122.394
  9
$NORTHDIRECTION
 40
0.0
  9
$TIMEZONE
 70
 -8000
  9
$LIGHTGLYPHDISPLAY
280
     1
  9
$TILEMODELIGHTSYNCH
280
     1
  9
$CMATERIAL
347
3C
  9
$SOLIDHIST
280
     1
  9
$SHOWHIST
280
     1
  9
$DWFFRAME
280
     2
  9
$DGNFRAME
280
     2
  9
$REALWORLDSCALE
290
     1
  9
$INTERFERECOLOR
 62
   256
  9
$CSHADOW
280
     0
  9
$SHADOWPLANELOCATION
 40
0.0
  0
ENDSEC
  0
SECTION
  2
CLASSES
  0
CLASS
  1
ACDBDICTIONARYWDFLT
  2
AcDbDictionaryWithDefault
  3
ObjectDBX Classes
 90
        0
 91
        4
280
     0
281
     0
  0
CLASS
  1
VISUALSTYLE
  2
AcDbVisualStyle
  3
ObjectDBX Classes
 90
     4095
 91
        4
280
     0
281
     0
  0
CLASS
  1
MATERIAL
  2
AcDbMaterial
  3
ObjectDBX Classes
 90
     1153
 91
        4
280
     0
281
     0
  0
CLASS
  1
SUN
  2
AcDbSun
  3
SCENEOE
 90
     1024
 91
        4
280
     0
281
     0
  0
ENDSEC
  0
SECTION
  2
TABLES
  0
TABLE
  2
VPORT
  5
8
330
0
100
AcDbSymbolTable
 70
     1
  0
VPORT
  5
29
330
8
100
AcDbSymbolTableRecord
100
AcDbViewportTableRecord
  2
*Active
 70
     0
 10
0.0
 20
0.0
 11
1.0
 21
1.0
 12
0.0
 22
0.0
 13
0.0
 23
0.0
 14
0.5
 24
0.5
 15
0.5
 25
0.5
 16
0.0
 26
0.0
 36
1.0
 17
220.8586816462889
 27
6.738447176366066
 37
0.0
 40
581.3572439124011
 41
0.7633764763071691
 42
50.0
 43
0.0
 44
0.0
 50
0.0
 51
0.0
 71
     0
 72
   100
 73
     1
 74
     3
 75
     0
 76
     0
 77
     0
 78
     0
281
     0
 65
     1
110
0.0
120
0.0
130
0.0
111
1.0
121
0.0
131
0.0
112
0.0
122
1.0
132
0.0
 79
     0
146
0.0
 60
     3
 61
     5
292
     1
282
     1
141
0.0
142
0.0
 63
   250
361
3F
  0
ENDTAB
  0
TABLE
  2
LTYPE
  5
5
330
0
100
AcDbSymbolTable
 70
     1
  0
LTYPE
  5
14
330
5
100
AcDbSymbolTableRecord
100
AcDbLinetypeTableRecord
  2
ByBlock
 70
     0
  3

 72
    65
 73
     0
 40
0.0
  0
LTYPE
  5
15
330
5
100
AcDbSymbolTableRecord
100
AcDbLinetypeTableRecord
  2
ByLayer
 70
     0
  3

 72
    65
 73
     0
 40
0.0
  0
LTYPE
  5
16
330
5
100
AcDbSymbolTableRecord
100
AcDbLinetypeTableRecord
  2
Continuous
 70
     0
  3
Solid line
 72
    65
 73
     0
 40
0.0
  0
ENDTAB
  0
TABLE
  2
LAYER
  5
2
330
0
100
AcDbSymbolTable
 70
     2
  0
LAYER
  5
10
330
2
100
AcDbSymbolTableRecord
100
AcDbLayerTableRecord
  2
0
 70
     0
 62
     7
  6
Continuous
370
    -3
390
F
347
3E
  0
LAYER
  5
40
330
2
100
AcDbSymbolTableRecord
100
AcDbLayerTableRecord
  2
Layer 1
 70
     0
 62
     7
  6
Continuous
370
    -3
390
F
347
3E
  0
ENDTAB
  0
TABLE
  2
STYLE
  5
3
330
0
100
AcDbSymbolTable
 70
     1
  0
STYLE
  5
11
330
3
100
AcDbSymbolTableRecord
100
AcDbTextStyleTableRecord
  2
Standard
 70
     0
 40
0.0
 41
1.0
 50
0.0
 71
     0
 42
0.2
  3
txt
  4

  0
ENDTAB
  0
TABLE
  2
VIEW
  5
6
330
0
100
AcDbSymbolTable
 70
     0
  0
ENDTAB
  0
TABLE
  2
UCS
  5
7
330
0
100
AcDbSymbolTable
 70
     0
  0
ENDTAB
  0
TABLE
  2
APPID
  5
9
330
0
100
AcDbSymbolTable
 70
     1
  0
APPID
  5
12
330
9
100
AcDbSymbolTableRecord
100
AcDbRegAppTableRecord
  2
ACAD
 70
     0
  0
ENDTAB
  0
TABLE
  2
DIMSTYLE
  5
A
330
0
100
AcDbSymbolTable
 70
     1
100
AcDbDimStyleTable
  0
DIMSTYLE
105
27
330
A
100
AcDbSymbolTableRecord
100
AcDbDimStyleTableRecord
  2
Standard
 70
     0
178
     0
340
11
  0
ENDTAB
  0
TABLE
  2
BLOCK_RECORD
  5
1
330
0
100
AcDbSymbolTable
 70
     2
  0
BLOCK_RECORD
  5
1F
330
1
100
AcDbSymbolTableRecord
100
AcDbBlockTableRecord
  2
*Model_Space
340
22
 70
     0
280
     1
281
     0
  0
BLOCK_RECORD
  5
1B
330
1
100
AcDbSymbolTableRecord
100
AcDbBlockTableRecord
  2
*Paper_Space
340
1E
 70
     0
280
     1
281
     0
  0
BLOCK_RECORD
  5
23
330
1
100
AcDbSymbolTableRecord
100
AcDbBlockTableRecord
  2
*Paper_Space0
340
26
 70
     0
280
     1
281
     0
  0
BLOCK_RECORD
  5
B8
330
1
100
AcDbSymbolTableRecord
100
AcDbBlockTableRecord
  2
block 2
340
0
102
{BLKREFS
331
B9
102
}
 70
     0
280
     1
281
     0
  0
ENDTAB
  0
ENDSEC
  0
SECTION
  2
BLOCKS
  0
BLOCK
  5
20
330
1F
100
AcDbEntity
  8
0
100
AcDbBlockBegin
  2
*Model_Space
 70
     0
 10
0.0
 20
0.0
 30
0.0
  3
*Model_Space
  1

  0
ENDBLK
  5
21
330
1F
100
AcDbEntity
  8
0
100
AcDbBlockEnd
  0
BLOCK
  5
1C
330
1B
100
AcDbEntity
 67
     1
  8
0
100
AcDbBlockBegin
  2
*Paper_Space
 70
     0
 10
0.0
 20
0.0
 30
0.0
  3
*Paper_Space
  1

  0
ENDBLK
  5
1D
330
1B
100
AcDbEntity
 67
     1
  8
0
100
AcDbBlockEnd
  0
BLOCK
  5
24
330
23
100
AcDbEntity
  8
0
100
AcDbBlockBegin
  2
*Paper_Space0
 70
     0
 10
0.0
 20
0.0
 30
0.0
  3
*Paper_Space0
  1

  0
ENDBLK
  5
25
330
23
100
AcDbEntity
  8
0
100
AcDbBlockEnd
  0
BLOCK
  5
BA
330
B8
100
AcDbEntity
  8
0
100
AcDbBlockBegin
  2
block 2
 70
     0
 10
0.0
 20
0.0
 30
0.0
  3
block 2
  1

  0
POLYLINE
  5
BC
330
B8
100
AcDbEntity
  8
Layer 1
 62
   250
420
  1842203
370
    35
100
AcDb2dPolyline
 66
     1
 10
0.0
 20
0.0
 30
0.0
  0
VERTEX
  5
BD
330
BC
100
AcDbEntity
  8
Layer 1
 62
   250
420
  1842203
370
    35
100
AcDbVertex
100
AcDb2dVertex
 10
224.1869256499229
 20
-143.5233998041036
 30
0.0
  0
VERTEX
  5
BE
330
BC
100
AcDbEntity
  8
Layer 1
 62
   250
420
  1842203
370
    35
100
AcDbVertex
100
AcDb2dVertex
 10
4.186925704923188
 20
-143.5233998041036
 30
0.0
  0
VERTEX
  5
BF
330
BC
100
AcDbEntity
  8
Layer 1
 62
   250
420
  1842203
370
    35
100
AcDbVertex
100
AcDb2dVertex
 10
4.186925704923188
 20
-29.23286435945064
 30
0.0
  0
VERTEX
  5
C0
330
BC
100
AcDbEntity
  8
Layer 1
 62
   250
420
  1842203
370
    35
100
AcDbVertex
100
AcDb2dVertex
 10
224.1869256499229
 20
-29.23286435945064
 30
0.0
  0
VERTEX
  5
C1
330
BC
100
AcDbEntity
  8
Layer 1
 62
   250
420
  1842203
370
    35
100
AcDbVertex
100
AcDb2dVertex
 10
224.1869256499229
 20
-143.5233998041036
 30
0.0
  0
SEQEND
  5
C2
330
BC
100
AcDbEntity
  8
Layer 1
 62
   250
420
  1842203
370
    35
  0
POLYLINE
  5
C3
330
B8
100
AcDbEntity
  8
Layer 1
 62
   250
420
  1842203
370
    35
100
AcDb2dPolyline
 66
     1
 10
0.0
 20
0.0
 30
0.0
  0
VERTEX
  5
C4
330
C3
100
AcDbEntity
  8
Layer 1
 62
   250
420
  1842203
370
    35
100
AcDbVertex
100
AcDb2dVertex
 10
214.1869256524239
 20
-64.35508657289299
 30
0.0
  0
VERTEX
  5
C5
330
C3
100
AcDbEntity
  8
Layer 1
 62
   250
420
  1842203
370
    35
100
AcDbVertex
100
AcDb2dVertex
 10
14.18692570242348
 20
-64.35508657289299
 30
0.0
  0
VERTEX
  5
C6
330
C3
100
AcDbEntity
  8
Layer 1
 62
   250
420
  1842203
370
    35
100
AcDbVertex
100
AcDb2dVertex
 10
14.18692570242348
 20
-34.35508658039339
 30
0.0
  0
VERTEX
  5
C7
330
C3
100
AcDbEntity
  8
Layer 1
 62
   250
420
  1842203
370
    35
100
AcDbVertex
100
AcDb2dVertex
 10
214.1869256524239
 20
-34.35508658039339
 30
0.0
  0
VERTEX
  5
C8
330
C3
100
AcDbEntity
  8
Layer 1
 62
   250
420
  1842203
370
    35
100
AcDbVertex
100
AcDb2dVertex
 10
214.1869256524239
 20
-64.35508657289299
 30
0.0
  0
SEQEND
  5
C9
330
C3
100
AcDbEntity
  8
Layer 1
 62
   250
420
  1842203
370
    35
  0
ENDBLK
  5
BB
330
B8
100
AcDbEntity
  8
0
100
AcDbBlockEnd
  0
ENDSEC
  0
SECTION
  2
ENTITIES
  0
POLYLINE
  5
41
330
1F
100
AcDbEntity
  8
Layer 1
 62
    40
420
 16563981
370
    70
100
AcDb2dPolyline
 66
     1
 10
0.0
 20
0.0
 30
0.0
  0
VERTEX
  5
42
330
41
100
AcDbEntity
  8
Layer 1
 62
    40
420
 16563981
370
    70
100
AcDbVertex
100
AcDb2dVertex
 10
214.1432260019536
 20
-245.2637683058926
 30
0.0
  0
VERTEX
  5
43
330
41
100
AcDbEntity
  8
Layer 1
 62
    40
420
 16563981
370
    70
100
AcDbVertex
100
AcDb2dVertex
 10
194.3537325970753
 20
-244.0871439057775
 30
0.0
  0
VERTEX
  5
44
330
41
100
AcDbEntity
  8
Layer 1
 62
    40
420
 16563981
370
    70
100
AcDbVertex
100
AcDb2dVertex
 10
174.1519593727552
 20
-245.2637813748341
 30
0.0
  0
VERTEX
  5
45
330
41
100
AcDbEntity
  8
Layer 1
 62
    40
420
 16563981
370
    70
100
AcDbVertex
100
AcDb2dVertex
 10
154.3624663523933
 20
-245.2637878419399
 30
0.0
  0
VERTEX
  5
46
330
41
100
AcDbEntity
  8
Layer 1
 62
    40
420
 16563981
370
    70
100
AcDbVertex
100
AcDb2dVertex
 10
134.1607175170561
 20
-245.2637944437678
 30
0.0
  0
VERTEX
  5
47
330
41
100
AcDbEntity
  8
Layer 1
 62
    40
420
 16563981
370
    70
100
AcDbVertex
100
AcDb2dVertex
 10
114.3712244966951
 20
-245.2638009108736
 30
0.0
  0
VERTEX
  5
48
330
41
100
AcDbEntity
  8
Layer 1
 62
    40
420
 16563981
370
    70
100
AcDbVertex
100
AcDb2dVertex
 10
94.16945127237278
 20
-246.4404383799289
 30
0.0
  0
VERTEX
  5
49
330
41
100
AcDbEntity
  8
Layer 1
 62
    40
420
 16563981
370
    70
100
AcDbVertex
100
AcDb2dVertex
 10
73.96767804805174
 20
-247.6170758489855
 30
0.0
  0
VERTEX
  5
4A
330
41
100
AcDbEntity
  8
Layer 1
 62
    40
420
 16563981
370
    70
100
AcDbVertex
100
AcDb2dVertex
 10
54.17818464317282
 20
-246.4404514488717
 30
0.0
  0
VERTEX
  5
4B
330
41
100
AcDbEntity
  8
Layer 1
 62
    40
420
 16563981
370
    70
100
AcDbVertex
100
AcDb2dVertex
 10
33.97641413102292
 20
-246.4404580507073
 30
0.0
  0
VERTEX
  5
4C
330
41
100
AcDbEntity
  8
Layer 1
 62
    40
420
 16563981
370
    70
100
AcDbVertex
100
AcDb2dVertex
 10
14.18692420734878
 20
-246.4404645178118
 30
0.0
  0
VERTEX
  5
4D
330
41
100
AcDbEntity
  8
Layer 1
 62
    40
420
 16563981
370
    70
100
AcDbVertex
100
AcDb2dVertex
 10
14.22002289805091
 20
-246.4398016272892
 30
0.0
  0
VERTEX
  5
4E
330
41
100
AcDbEntity
  8
Layer 1
 62
    40
420
 16563981
370
    70
100
AcDbVertex
100
AcDb2dVertex
 10
14.2200296652508
 20
-259.9723889068501
 30
0.0
  0
VERTEX
  5
4F
330
41
100
AcDbEntity
  8
Layer 1
 62
    40
420
 16563981
370
    70
100
AcDbVertex
100
AcDb2dVertex
 10
214.186927147498
 20
-259.9717357056763
 30
0.0
  0
VERTEX
  5
50
330
41
100
AcDbEntity
  8
Layer 1
 62
    40
420
 16563981
370
    70
100
AcDbVertex
100
AcDb2dVertex
 10
214.1869271462466
 20
-259.9753149545266
 30
0.0
  0
VERTEX
  5
51
330
41
100
AcDbEntity
  8
Layer 1
 62
    40
420
 16563981
370
    70
100
AcDbVertex
100
AcDb2dVertex
 10
214.1869237716695
 20
-245.2602426332562
 30
0.0
  0
SEQEND
  5
52
330
41
100
AcDbEntity
  8
Layer 1
 62
    40
420
 16563981
370
    70
  0
POLYLINE
  5
53
330
1F
100
AcDbEntity
  8
Layer 1
 62
   153
420
  6069204
370
    70
100
AcDb2dPolyline
 66
     1
 10
0.0
 20
0.0
 30
0.0
  0
VERTEX
  5
54
330
53
100
AcDbEntity
  8
Layer 1
 62
   153
420
  6069204
370
    70
100
AcDbVertex
100
AcDb2dVertex
 10
233.9715597101448
 20
-279.1591448568437
 30
0.0
  0
VERTEX
  5
55
330
53
100
AcDbEntity
  8
Layer 1
 62
   153
420
  6069204
370
    70
100
AcDbVertex
100
AcDb2dVertex
 10
253.7549542585013
 20
-276.8058766572917
 30
0.0
  0
VERTEX
  5
56
330
53
100
AcDbEntity
  8
Layer 1
 62
   153
420
  6069204
370
    70
100
AcDbVertex
100
AcDb2dVertex
 10
273.9505023600138
 20
-274.4526083230471
 30
0.0
  0
VERTEX
  5
57
330
53
100
AcDbEntity
  8
Layer 1
 62
   153
420
  6069204
370
    70
100
AcDbVertex
100
AcDb2dVertex
 10
293.7338969083704
 20
-272.0993401234951
 30
0.0
  0
VERTEX
  5
58
330
53
100
AcDbEntity
  8
Layer 1
 62
   153
420
  6069204
370
    70
100
AcDbVertex
100
AcDb2dVertex
 10
313.929420628533
 20
-270.9227026564803
 30
0.0
  0
VERTEX
  5
59
330
53
100
AcDbEntity
  8
Layer 1
 62
   153
420
  6069204
370
    70
100
AcDbVertex
100
AcDb2dVertex
 10
333.7128155614059
 20
-269.7460653241467
 30
0.0
  0
VERTEX
  5
5A
330
53
100
AcDbEntity
  8
Layer 1
 62
   153
420
  6069204
370
    70
100
AcDbVertex
100
AcDb2dVertex
 10
353.9083640474373
 20
-268.5694278571243
 30
0.0
  0
VERTEX
  5
5B
330
53
100
AcDbEntity
  8
Layer 1
 62
   153
420
  6069204
370
    70
100
AcDbVertex
100
AcDb2dVertex
 10
374.1039125334675
 20
-267.3927903901019
 30
0.0
  0
VERTEX
  5
5C
330
53
100
AcDbEntity
  8
Layer 1
 62
   153
420
  6069204
370
    70
100
AcDbVertex
100
AcDb2dVertex
 10
393.8873078508567
 20
-267.3927839249892
 30
0.0
  0
VERTEX
  5
5D
330
53
100
AcDbEntity
  8
Layer 1
 62
   153
420
  6069204
370
    70
100
AcDbVertex
100
AcDb2dVertex
 10
414.0828540101875
 20
-268.5694081924087
 30
0.0
  0
VERTEX
  5
5E
330
53
100
AcDbEntity
  8
Layer 1
 62
   153
420
  6069204
370
    70
100
AcDbVertex
100
AcDb2dVertex
 10
433.8662462318434
 20
-268.5694017272973
 30
0.0
  0
VERTEX
  5
5F
330
53
100
AcDbEntity
  8
Layer 1
 62
   153
420
  6069204
370
    70
100
AcDbVertex
100
AcDb2dVertex
 10
433.8126129212119
 20
-268.5705460750402
 30
0.0
  0
VERTEX
  5
60
330
53
100
AcDbEntity
  8
Layer 1
 62
   153
420
  6069204
370
    70
100
AcDbVertex
100
AcDb2dVertex
 10
433.8126091685533
 20
-247.9771752218467
 30
0.0
  0
VERTEX
  5
61
330
53
100
AcDbEntity
  8
Layer 1
 62
   153
420
  6069204
370
    70
100
AcDbVertex
100
AcDb2dVertex
 10
233.8662395820902
 20
-247.9783000485157
 30
0.0
  0
VERTEX
  5
62
330
53
100
AcDbEntity
  8
Layer 1
 62
   153
420
  6069204
370
    70
100
AcDbVertex
100
AcDb2dVertex
 10
233.8662395814344
 20
-247.9753425357096
 30
0.0
  0
VERTEX
  5
63
330
53
100
AcDbEntity
  8
Layer 1
 62
   153
420
  6069204
370
    70
100
AcDbVertex
100
AcDb2dVertex
 10
233.8662497434599
 20
-279.1620584201614
 30
0.0
  0
SEQEND
  5
64
330
53
100
AcDbEntity
  8
Layer 1
 62
   153
420
  6069204
370
    70
  0
SPLINE
  5
65
330
1F
100
AcDbEntity
  8
Layer 1
 62
    34
420
 10373654
370
    70
100
AcDbSpline
210
0.0
220
0.0
230
1.0
 70
     8
 71
     3
 72
    44
 73
    40
 74
     0
 42
0.0000000001
 43
0.0000000001
 12
1.0
 22
0.0
 32
0.0
 13
1.0
 23
0.0
 33
0.0
 40
0.0
 40
0.0
 40
0.0
 40
0.0
 40
1.0
 40
1.0
 40
1.0
 40
2.0
 40
2.0
 40
2.0
 40
3.0
 40
3.0
 40
3.0
 40
4.0
 40
4.0
 40
4.0
 40
5.0
 40
5.0
 40
5.0
 40
6.0
 40
6.0
 40
6.0
 40
7.0
 40
7.0
 40
7.0
 40
8.0
 40
8.0
 40
8.0
 40
9.0
 40
9.0
 40
9.0
 40
10.0
 40
10.0
 40
10.0
 40
11.0
 40
11.0
 40
11.0
 40
12.0
 40
12.0
 40
12.0
 40
13.0
 40
13.0
 40
13.0
 40
13.0
 10
214.1869236050215
 20
-239.3794511327308
 30
0.0
 10
214.1869236050215
 20
-239.3794511327308
 30
0.0
 10
14.18692643402359
 20
-239.3825483386564
 30
0.0
 10
14.18692570242316
 20
-239.3825483386564
 30
0.0
 10
14.18692570242316
 20
-239.3825483386564
 30
0.0
 10
14.19220830349282
 20
-180.0971685208011
 30
0.0
 10
14.19221039256394
 20
-180.0971685208011
 30
0.0
 10
14.19221039256394
 20
-180.0971685208011
 30
0.0
 10
33.9849770329688
 20
-178.9205376535801
 30
0.0
 10
33.9849770329688
 20
-178.9205376535801
 30
0.0
 10
33.9849770329688
 20
-178.9205376535801
 30
0.0
 10
54.19009252670637
 20
-180.0971685208011
 30
0.0
 10
54.19009252670637
 20
-180.0971685208011
 30
0.0
 10
54.19009252670637
 20
-180.0971685208011
 30
0.0
 10
73.98286226431144
 20
-184.8036919896772
 30
0.0
 10
73.98286226431144
 20
-184.8036919896772
 30
0.0
 10
73.98286226431144
 20
-184.8036919896772
 30
0.0
 10
94.18798085525049
 20
-184.8036919896772
 30
0.0
 10
94.18798085525049
 20
-184.8036919896772
 30
0.0
 10
94.18798085525049
 20
-184.8036919896772
 30
0.0
 10
114.3930994461896
 20
-182.4504302552404
 30
0.0
 10
114.3930994461896
 20
-182.4504302552404
 30
0.0
 10
114.3930994461896
 20
-182.4504302552404
 30
0.0
 10
134.1858691837953
 20
-182.4504302552404
 30
0.0
 10
134.1858691837953
 20
-182.4504302552404
 30
0.0
 10
134.1858691837953
 20
-182.4504302552404
 30
0.0
 10
154.3909629971314
 20
-178.9205376535801
 30
0.0
 10
154.3909629971314
 20
-178.9205376535801
 30
0.0
 10
154.3909629971314
 20
-178.9205376535801
 30
0.0
 10
174.1837327347365
 20
-175.3906450519198
 30
0.0
 10
174.1837327347365
 20
-175.3906450519198
 30
0.0
 10
174.1837327347365
 20
-175.3906450519198
 30
0.0
 10
194.3888513256749
 20
-171.8607524502583
 30
0.0
 10
194.3888513256749
 20
-171.8607524502583
 30
0.0
 10
194.3888513256749
 20
-171.8607524502583
 30
0.0
 10
214.18162106328
 20
-169.5074907158177
 30
0.0
 10
214.1816217469911
 20
-169.5074907158177
 30
0.0
 10
214.1816217469911
 20
-169.5074907158177
 30
0.0
 10
214.1869256524226
 20
-239.3822584740291
 30
0.0
 10
214.1869256524226
 20
-239.3822584740291
 30
0.0
  0
SPLINE
  5
66
330
1F
100
AcDbEntity
  8
Layer 1
 62
   253
420
 10790052
370
    70
100
AcDbSpline
210
0.0
220
0.0
230
1.0
 70
     8
 71
     3
 72
    47
 73
    43
 74
     0
 42
0.0000000001
 43
0.0000000001
 12
1.0
 22
0.0
 32
0.0
 13
1.0
 23
0.0
 33
0.0
 40
0.0
 40
0.0
 40
0.0
 40
0.0
 40
1.0
 40
1.0
 40
1.0
 40
2.0
 40
2.0
 40
2.0
 40
3.0
 40
3.0
 40
3.0
 40
4.0
 40
4.0
 40
4.0
 40
5.0
 40
5.0
 40
5.0
 40
6.0
 40
6.0
 40
6.0
 40
7.0
 40
7.0
 40
7.0
 40
8.0
 40
8.0
 40
8.0
 40
9.0
 40
9.0
 40
9.0
 40
10.0
 40
10.0
 40
10.0
 40
11.0
 40
11.0
 40
11.0
 40
12.0
 40
12.0
 40
12.0
 40
13.0
 40
13.0
 40
13.0
 40
14.0
 40
14.0
 40
14.0
 40
14.0
 10
433.8609389504769
 20
-99.13985920125917
 30
0.0
 10
433.8609389504769
 20
-99.13985920125917
 30
0.0
 10
414.0681695152455
 20
-100.3164900684801
 30
0.0
 10
414.0681695152455
 20
-100.3164900684801
 30
0.0
 10
414.0681695152455
 20
-100.3164900684801
 30
0.0
 10
393.863051232981
 20
-105.0230135373614
 30
0.0
 10
393.863051232981
 20
-105.0230135373614
 30
0.0
 10
393.863051232981
 20
-105.0230135373614
 30
0.0
 10
374.0702817977497
 20
-107.376275271801
 30
0.0
 10
374.0702817977497
 20
-107.376275271801
 30
0.0
 10
374.0702817977497
 20
-107.376275271801
 30
0.0
 10
353.8651882930868
 20
-109.7295370062429
 30
0.0
 10
353.8651882930868
 20
-109.7295370062429
 30
0.0
 10
353.8651882930868
 20
-109.7295370062429
 30
0.0
 10
334.0724188578554
 20
-113.259429607898
 30
0.0
 10
334.0724188578554
 20
-113.259429607898
 30
0.0
 10
334.0724188578554
 20
-113.259429607898
 30
0.0
 10
313.8673005755896
 20
-116.7893222095596
 30
0.0
 10
313.8673005755896
 20
-116.7893222095596
 30
0.0
 10
313.8673005755896
 20
-116.7893222095596
 30
0.0
 10
293.6621822933239
 20
-121.4958456784408
 30
0.0
 10
293.6621822933239
 20
-121.4958456784408
 30
0.0
 10
293.6621822933239
 20
-121.4958456784408
 30
0.0
 10
273.8694128580925
 20
-120.3192148112199
 30
0.0
 10
273.8694128580925
 20
-120.3192148112199
 30
0.0
 10
273.8694128580925
 20
-120.3192148112199
 30
0.0
 10
253.6642976730282
 20
-121.4958456784408
 30
0.0
 10
253.6642976730282
 20
-121.4958456784408
 30
0.0
 10
253.6642976730282
 20
-121.4958456784408
 30
0.0
 10
233.8715313349971
 20
-122.6724765456605
 30
0.0
 10
233.8715313349971
 20
-122.6724765456605
 30
0.0
 10
233.871535131734
 20
-122.6724765456618
 30
0.0
 10
233.8662429316385
 20
-168.7867810548529
 30
0.0
 10
233.8662429316385
 20
-168.7867810548529
 30
0.0
 10
233.8662467186369
 20
-168.7867810548529
 30
0.0
 10
433.8662408342369
 20
-168.7836838489272
 30
0.0
 10
433.8662408342369
 20
-168.7836838489272
 30
0.0
 10
433.8662408342369
 20
-168.7836838489272
 30
0.0
 10
433.8662428816393
 20
-168.7864911902243
 30
0.0
 10
433.8662428816393
 20
-168.7864911902243
 30
0.0
 10
433.8662428816393
 20
-168.7864911902243
 30
0.0
 10
433.8609389762873
 20
-98.91172343201384
 30
0.0
 10
433.8609389762873
 20
-98.91172343201384
 30
0.0
  0
POLYLINE
  5
67
330
1F
100
AcDbEntity
  8
Layer 1
 62
    75
420
  7450183
370
    70
100
AcDb2dPolyline
 66
     1
 10
0.0
 20
0.0
 30
0.0
  0
VERTEX
  5
68
330
67
100
AcDbEntity
  8
Layer 1
 62
    75
420
  7450183
370
    70
100
AcDbVertex
100
AcDb2dVertex
 10
233.9444152907949
 20
-204.1961668356578
 30
0.0
  0
VERTEX
  5
69
330
67
100
AcDbEntity
  8
Layer 1
 62
    75
420
  7450183
370
    70
100
AcDbVertex
100
AcDb2dVertex
 10
233.944415005448
 20
-243.6158816709314
 30
0.0
  0
VERTEX
  5
6A
330
67
100
AcDbEntity
  8
Layer 1
 62
    75
420
  7450183
370
    70
100
AcDbVertex
100
AcDb2dVertex
 10
433.8662428809231
 20
-243.6147019735105
 30
0.0
  0
VERTEX
  5
6B
330
67
100
AcDbEntity
  8
Layer 1
 62
    75
420
  7450183
370
    70
100
AcDbVertex
100
AcDb2dVertex
 10
433.8662428816393
 20
-243.6151606173392
 30
0.0
  0
VERTEX
  5
6C
330
67
100
AcDbEntity
  8
Layer 1
 62
    75
420
  7450183
370
    70
100
AcDbVertex
100
AcDb2dVertex
 10
433.8662402076819
 20
-188.900815345227
 30
0.0
  0
VERTEX
  5
6D
330
67
100
AcDbEntity
  8
Layer 1
 62
    75
420
  7450183
370
    70
100
AcDbVertex
100
AcDb2dVertex
 10
433.8132913583042
 20
-188.9012349294922
 30
0.0
  0
VERTEX
  5
6E
330
67
100
AcDbEntity
  8
Layer 1
 62
    75
420
  7450183
370
    70
100
AcDbVertex
100
AcDb2dVertex
 10
414.0247141733909
 20
-191.2544966639328
 30
0.0
  0
VERTEX
  5
6F
330
67
100
AcDbEntity
  8
Layer 1
 62
    75
420
  7450183
370
    70
100
AcDbVertex
100
AcDb2dVertex
 10
393.8238754798833
 20
-194.7843892655943
 30
0.0
  0
VERTEX
  5
70
330
67
100
AcDbEntity
  8
Layer 1
 62
    75
420
  7450183
370
    70
100
AcDbVertex
100
AcDb2dVertex
 10
374.0352982949701
 20
-194.7843892655943
 30
0.0
  0
VERTEX
  5
71
330
67
100
AcDbEntity
  8
Layer 1
 62
    75
420
  7450183
370
    70
100
AcDbVertex
100
AcDb2dVertex
 10
353.8344843738149
 20
-195.961020132814
 30
0.0
  0
VERTEX
  5
72
330
67
100
AcDbEntity
  8
Layer 1
 62
    75
420
  7450183
370
    70
100
AcDbVertex
100
AcDb2dVertex
 10
334.0459071889017
 20
-198.3142818672546
 30
0.0
  0
VERTEX
  5
73
330
67
100
AcDbEntity
  8
Layer 1
 62
    75
420
  7450183
370
    70
100
AcDbVertex
100
AcDb2dVertex
 10
313.8450684953928
 20
-200.6675436016953
 30
0.0
  0
VERTEX
  5
74
330
67
100
AcDbEntity
  8
Layer 1
 62
    75
420
  7450183
370
    70
100
AcDbVertex
100
AcDb2dVertex
 10
293.6442298018852
 20
-201.8441744689162
 30
0.0
  0
VERTEX
  5
75
330
67
100
AcDbEntity
  8
Layer 1
 62
    75
420
  7450183
370
    70
100
AcDbVertex
100
AcDb2dVertex
 10
273.8556526169719
 20
-200.6675436016953
 30
0.0
  0
VERTEX
  5
76
330
67
100
AcDbEntity
  8
Layer 1
 62
    75
420
  7450183
370
    70
100
AcDbVertex
100
AcDb2dVertex
 10
253.6548170200074
 20
-203.0208053361359
 30
0.0
  0
VERTEX
  5
77
330
67
100
AcDbEntity
  8
Layer 1
 62
    75
420
  7450183
370
    70
100
AcDbVertex
100
AcDb2dVertex
 10
233.8662429316385
 20
-204.1974362033568
 30
0.0
  0
SEQEND
  5
78
330
67
100
AcDbEntity
  8
Layer 1
 62
    75
420
  7450183
370
    70
  0
POLYLINE
  5
79
330
1F
100
AcDbEntity
  8
Layer 1
 62
    30
420
 15564082
370
    70
100
AcDb2dPolyline
 66
     1
 10
0.0
 20
0.0
 30
0.0
  0
VERTEX
  5
7A
330
79
100
AcDbEntity
  8
Layer 1
 62
    30
420
 15564082
370
    70
100
AcDbVertex
100
AcDb2dVertex
 10
233.8715499387378
 20
139.6626352333416
 30
0.0
  0
VERTEX
  5
7B
330
79
100
AcDbEntity
  8
Layer 1
 62
    30
420
 15564082
370
    70
100
AcDbVertex
100
AcDb2dVertex
 10
253.6643143998454
 20
133.7794808972394
 30
0.0
  0
VERTEX
  5
7C
330
79
100
AcDbEntity
  8
Layer 1
 62
    30
420
 15564082
370
    70
100
AcDbVertex
100
AcDb2dVertex
 10
273.8694276688863
 20
137.309373498901
 30
0.0
  0
VERTEX
  5
7D
330
79
100
AcDbEntity
  8
Layer 1
 62
    30
420
 15564082
370
    70
100
AcDbVertex
100
AcDb2dVertex
 10
293.6621952271941
 20
142.0158969677823
 30
0.0
  0
VERTEX
  5
7E
330
79
100
AcDbEntity
  8
Layer 1
 62
    30
420
 15564082
370
    70
100
AcDbVertex
100
AcDb2dVertex
 10
313.8673115934351
 20
142.0158969677823
 30
0.0
  0
VERTEX
  5
7F
330
79
100
AcDbEntity
  8
Layer 1
 62
    30
420
 15564082
370
    70
100
AcDbVertex
100
AcDb2dVertex
 10
334.0724279596761
 20
134.9561117644604
 30
0.0
  0
VERTEX
  5
80
330
79
100
AcDbEntity
  8
Layer 1
 62
    30
420
 15564082
370
    70
100
AcDbVertex
100
AcDb2dVertex
 10
353.865195517984
 20
132.6028500300198
 30
0.0
  0
VERTEX
  5
81
330
79
100
AcDbEntity
  8
Layer 1
 62
    30
420
 15564082
370
    70
100
AcDbVertex
100
AcDb2dVertex
 10
374.0702871066246
 20
129.0729574283582
 30
0.0
  0
VERTEX
  5
82
330
79
100
AcDbEntity
  8
Layer 1
 62
    30
420
 15564082
370
    70
100
AcDbVertex
100
AcDb2dVertex
 10
393.8630546649338
 20
129.0729574283582
 30
0.0
  0
VERTEX
  5
83
330
79
100
AcDbEntity
  8
Layer 1
 62
    30
420
 15564082
370
    70
100
AcDbVertex
100
AcDb2dVertex
 10
414.0681710311735
 20
126.7196956939176
 30
0.0
  0
VERTEX
  5
84
330
79
100
AcDbEntity
  8
Layer 1
 62
    30
420
 15564082
370
    70
100
AcDbVertex
100
AcDb2dVertex
 10
433.8609385894827
 20
131.4262191627988
 30
0.0
  0
VERTEX
  5
85
330
79
100
AcDbEntity
  8
Layer 1
 62
    30
420
 15564082
370
    70
100
AcDbVertex
100
AcDb2dVertex
 10
433.8662428816393
 20
131.0381487608583
 30
0.0
  0
VERTEX
  5
86
330
79
100
AcDbEntity
  8
Layer 1
 62
    30
420
 15564082
370
    70
100
AcDbVertex
100
AcDb2dVertex
 10
433.866231845259
 20
292.8306681579742
 30
0.0
  0
VERTEX
  5
87
330
79
100
AcDbEntity
  8
Layer 1
 62
    30
420
 15564082
370
    70
100
AcDbVertex
100
AcDb2dVertex
 10
433.8662318390409
 20
292.8278608166764
 30
0.0
  0
VERTEX
  5
88
330
79
100
AcDbEntity
  8
Layer 1
 62
    30
420
 15564082
370
    70
100
AcDbVertex
100
AcDb2dVertex
 10
233.8662566891795
 20
292.8309580226021
 30
0.0
  0
VERTEX
  5
89
330
79
100
AcDbEntity
  8
Layer 1
 62
    30
420
 15564082
370
    70
100
AcDbVertex
100
AcDb2dVertex
 10
233.8662429316385
 20
139.2741461907999
 30
0.0
  0
SEQEND
  5
8A
330
79
100
AcDbEntity
  8
Layer 1
 62
    30
420
 15564082
370
    70
  0
SPLINE
  5
8B
330
1F
100
AcDbEntity
  8
Layer 1
 62
   155
420
  4616373
370
    70
100
AcDbSpline
210
0.0
220
0.0
230
1.0
 70
     8
 71
     3
 72
    50
 73
    46
 74
     0
 42
0.0000000001
 43
0.0000000001
 12
1.0
 22
0.0
 32
0.0
 13
1.0
 23
0.0
 33
0.0
 40
0.0
 40
0.0
 40
0.0
 40
0.0
 40
1.0
 40
1.0
 40
1.0
 40
2.0
 40
2.0
 40
2.0
 40
3.0
 40
3.0
 40
3.0
 40
4.0
 40
4.0
 40
4.0
 40
5.0
 40
5.0
 40
5.0
 40
6.0
 40
6.0
 40
6.0
 40
7.0
 40
7.0
 40
7.0
 40
8.0
 40
8.0
 40
8.0
 40
9.0
 40
9.0
 40
9.0
 40
10.0
 40
10.0
 40
10.0
 40
11.0
 40
11.0
 40
11.0
 40
12.0
 40
12.0
 40
12.0
 40
13.0
 40
13.0
 40
13.0
 40
14.0
 40
14.0
 40
14.0
 40
15.0
 40
15.0
 40
15.0
 40
15.0
 10
433.860948320674
 20
-85.80965045084707
 30
0.0
 10
433.860948320674
 20
-85.80965045084707
 30
0.0
 10
414.0681816693128
 20
-86.98628131806801
 30
0.0
 10
414.0681816693128
 20
-86.98628131806801
 30
0.0
 10
414.0681816693128
 20
-86.98628131806801
 30
0.0
 10
393.8630661643897
 20
-84.6330195836274
 30
0.0
 10
393.8630661643897
 20
-84.6330195836274
 30
0.0
 10
393.8630661643897
 20
-84.6330195836274
 30
0.0
 10
374.0702964158284
 20
-75.21997264586494
 30
0.0
 10
374.0702964158284
 20
-75.21997264586494
 30
0.0
 10
374.0702964158284
 20
-75.21997264586494
 30
0.0
 10
353.8651778137051
 20
-75.21997264586494
 30
0.0
 10
353.8651778137051
 20
-75.21997264586494
 30
0.0
 10
353.8651778137051
 20
-75.21997264586494
 30
0.0
 10
333.6600592115819
 20
-82.27975784918678
 30
0.0
 10
333.6600592115819
 20
-82.27975784918678
 30
0.0
 10
333.6600592115819
 20
-82.27975784918678
 30
0.0
 10
313.8672894630204
 20
-84.6330195836274
 30
0.0
 10
313.8672894630204
 20
-84.6330195836274
 30
0.0
 10
313.8672894630204
 20
-84.6330195836274
 30
0.0
 10
293.6621956385001
 20
-91.69280478694924
 30
0.0
 10
293.6621956385001
 20
-91.69280478694924
 30
0.0
 10
293.6621956385001
 20
-91.69280478694924
 30
0.0
 10
273.8694258899387
 20
-99.92922085749204
 30
0.0
 10
273.8694258899387
 20
-99.92922085749204
 30
0.0
 10
273.8694258899387
 20
-99.92922085749204
 30
0.0
 10
253.6643072878142
 20
-105.8123751935933
 30
0.0
 10
253.6643072878142
 20
-105.8123751935933
 30
0.0
 10
253.6643072878142
 20
-105.8123751935933
 30
0.0
 10
233.8715375392527
 20
-119.9319456002369
 30
0.0
 10
233.8715375392527
 20
-119.9319456002369
 30
0.0
 10
233.8715375392527
 20
-119.9319456002369
 30
0.0
 10
233.8715473627089
 20
-119.7256818105941
 30
0.0
 10
233.8715473627089
 20
-119.7256818105941
 30
0.0
 10
233.8715473627089
 20
-119.7256818105941
 30
0.0
 10
233.8662434572735
 20
27.94450039459226
 30
0.0
 10
233.8662434572735
 20
27.94450039459226
 30
0.0
 10
233.8662434572735
 20
27.94450039459226
 30
0.0
 10
233.8662429316385
 20
27.94169305329389
 30
0.0
 10
233.8662429316385
 20
27.94169305329389
 30
0.0
 10
233.8662429316385
 20
27.94169305329389
 30
0.0
 10
433.8662402133468
 20
27.94479025921953
 30
0.0
 10
433.8662428816393
 20
27.94479025921953
 30
0.0
 10
433.8662428816393
 20
27.94479025921953
 30
0.0
 10
433.860960280567
 20
-85.60338666120424
 30
0.0
 10
433.860960280567
 20
-85.60338666120424
 30
0.0
  0
POLYLINE
  5
8C
330
1F
100
AcDbEntity
  8
Layer 1
 62
   177
420
  2507896
370
    70
100
AcDb2dPolyline
 66
     1
 10
0.0
 20
0.0
 30
0.0
  0
VERTEX
  5
8D
330
8C
100
AcDbEntity
  8
Layer 1
 62
   177
420
  2507896
370
    70
100
AcDbVertex
100
AcDb2dVertex
 10
433.8662428816393
 20
111.6669610914686
 30
0.0
  0
VERTEX
  5
8E
330
8C
100
AcDbEntity
  8
Layer 1
 62
   177
420
  2507896
370
    70
100
AcDbVertex
100
AcDb2dVertex
 10
414.0851487119121
 20
116.3734845603498
 30
0.0
  0
VERTEX
  5
8F
330
8C
100
AcDbEntity
  8
Layer 1
 62
   177
420
  2507896
370
    70
100
AcDbVertex
100
AcDb2dVertex
 10
393.8919488650559
 20
115.1968536931289
 30
0.0
  0
VERTEX
  5
90
330
8C
100
AcDbEntity
  8
Layer 1
 62
   177
420
  2507896
370
    70
100
AcDbVertex
100
AcDb2dVertex
 10
374.1108515999549
 20
116.3734845603498
 30
0.0
  0
VERTEX
  5
91
330
8C
100
AcDbEntity
  8
Layer 1
 62
   177
420
  2507896
370
    70
100
AcDbVertex
100
AcDb2dVertex
 10
353.917648657726
 20
116.3734845603498
 30
0.0
  0
VERTEX
  5
92
330
8C
100
AcDbEntity
  8
Layer 1
 62
   177
420
  2507896
370
    70
100
AcDbVertex
100
AcDb2dVertex
 10
333.7244457154972
 20
121.080008029231
 30
0.0
  0
VERTEX
  5
93
330
8C
100
AcDbEntity
  8
Layer 1
 62
   177
420
  2507896
370
    70
100
AcDbVertex
100
AcDb2dVertex
 10
313.9433484503948
 20
122.2566388964513
 30
0.0
  0
VERTEX
  5
94
330
8C
100
AcDbEntity
  8
Layer 1
 62
   177
420
  2507896
370
    70
100
AcDbVertex
100
AcDb2dVertex
 10
293.750170271156
 20
124.609900630892
 30
0.0
  0
VERTEX
  5
95
330
8C
100
AcDbEntity
  8
Layer 1
 62
   177
420
  2507896
370
    70
100
AcDbVertex
100
AcDb2dVertex
 10
273.969073006055
 20
125.7865314981123
 30
0.0
  0
VERTEX
  5
96
330
8C
100
AcDbEntity
  8
Layer 1
 62
   177
420
  2507896
370
    70
100
AcDbVertex
100
AcDb2dVertex
 10
253.7758700638261
 20
130.4930549669935
 30
0.0
  0
VERTEX
  5
97
330
8C
100
AcDbEntity
  8
Layer 1
 62
   177
420
  2507896
370
    70
100
AcDbVertex
100
AcDb2dVertex
 10
233.9947727987251
 20
134.0229475686544
 30
0.0
  0
VERTEX
  5
98
330
8C
100
AcDbEntity
  8
Layer 1
 62
   177
420
  2507896
370
    70
100
AcDbVertex
100
AcDb2dVertex
 10
233.8715439785832
 20
134.0260447745801
 30
0.0
  0
VERTEX
  5
99
330
8C
100
AcDbEntity
  8
Layer 1
 62
   177
420
  2507896
370
    70
100
AcDbVertex
100
AcDb2dVertex
 10
233.8662432010456
 20
31.06790640941391
 30
0.0
  0
VERTEX
  5
9A
330
8C
100
AcDbEntity
  8
Layer 1
 62
   177
420
  2507896
370
    70
100
AcDbVertex
100
AcDb2dVertex
 10
233.8662429316385
 20
31.07071375071228
 30
0.0
  0
VERTEX
  5
9B
330
8C
100
AcDbEntity
  8
Layer 1
 62
   177
420
  2507896
370
    70
100
AcDbVertex
100
AcDb2dVertex
 10
433.748293236043
 20
31.06761654478664
 30
0.0
  0
VERTEX
  5
9C
330
8C
100
AcDbEntity
  8
Layer 1
 62
   177
420
  2507896
370
    70
100
AcDbVertex
100
AcDb2dVertex
 10
433.7430137503042
 20
111.6700582973942
 30
0.0
  0
SEQEND
  5
9D
330
8C
100
AcDbEntity
  8
Layer 1
 62
   177
420
  2507896
370
    70
  0
POLYLINE
  5
9E
330
1F
100
AcDbEntity
  8
Layer 1
 62
   250
420
  1842203
370
    35
100
AcDb2dPolyline
 66
     1
 10
0.0
 20
0.0
 30
0.0
  0
VERTEX
  5
9F
330
9E
100
AcDbEntity
  8
Layer 1
 62
   250
420
  1842203
370
    35
100
AcDbVertex
100
AcDb2dVertex
 10
224.1869256499229
 20
-25.57297211795379
 30
0.0
  0
VERTEX
  5
A0
330
9E
100
AcDbEntity
  8
Layer 1
 62
   250
420
  1842203
370
    35
100
AcDbVertex
100
AcDb2dVertex
 10
4.186925704923188
 20
-25.57297211795379
 30
0.0
  0
VERTEX
  5
A1
330
9E
100
AcDbEntity
  8
Layer 1
 62
   250
420
  1842203
370
    35
100
AcDbVertex
100
AcDb2dVertex
 10
4.186925704923188
 20
88.7175633267008
 30
0.0
  0
VERTEX
  5
A2
330
9E
100
AcDbEntity
  8
Layer 1
 62
   250
420
  1842203
370
    35
100
AcDbVertex
100
AcDb2dVertex
 10
224.1869256499229
 20
88.7175633267008
 30
0.0
  0
VERTEX
  5
A3
330
9E
100
AcDbEntity
  8
Layer 1
 62
   250
420
  1842203
370
    35
100
AcDbVertex
100
AcDb2dVertex
 10
224.1869256499229
 20
-25.57297211795379
 30
0.0
  0
SEQEND
  5
A4
330
9E
100
AcDbEntity
  8
Layer 1
 62
   250
420
  1842203
370
    35
  0
SPLINE
  5
A5
330
1F
100
AcDbEntity
  8
Layer 1
 62
   251
420
  6579299
370
    70
100
AcDbSpline
210
0.0
220
0.0
230
1.0
 70
     8
 71
     3
 72
    50
 73
    46
 74
     0
 42
0.0000000001
 43
0.0000000001
 12
1.0
 22
0.0
 32
0.0
 13
1.0
 23
0.0
 33
0.0
 40
0.0
 40
0.0
 40
0.0
 40
0.0
 40
1.0
 40
1.0
 40
1.0
 40
2.0
 40
2.0
 40
2.0
 40
3.0
 40
3.0
 40
3.0
 40
4.0
 40
4.0
 40
4.0
 40
5.0
 40
5.0
 40
5.0
 40
6.0
 40
6.0
 40
6.0
 40
7.0
 40
7.0
 40
7.0
 40
8.0
 40
8.0
 40
8.0
 40
9.0
 40
9.0
 40
9.0
 40
10.0
 40
10.0
 40
10.0
 40
11.0
 40
11.0
 40
11.0
 40
12.0
 40
12.0
 40
12.0
 40
13.0
 40
13.0
 40
13.0
 40
14.0
 40
14.0
 40
14.0
 40
15.0
 40
15.0
 40
15.0
 40
15.0
 10
433.7902509533495
 20
-185.218124649006
 30
0.0
 10
433.7902509533495
 20
-185.218124649006
 30
0.0
 10
414.0039571684713
 20
-185.218124649006
 30
0.0
 10
414.0039571684713
 20
-185.218124649006
 30
0.0
 10
414.0039571684713
 20
-185.218124649006
 30
0.0
 10
393.8054493812685
 20
-185.218124649006
 30
0.0
 10
393.8054493812685
 20
-185.218124649006
 30
0.0
 10
393.8054493812685
 20
-185.218124649006
 30
0.0
 10
374.0191525002016
 20
-184.0414937817863
 30
0.0
 10
374.0191525002016
 20
-184.0414937817863
 30
0.0
 10
374.0191525002016
 20
-184.0414937817863
 30
0.0
 10
353.8206416168112
 20
-185.218124649006
 30
0.0
 10
353.8206416168112
 20
-185.218124649006
 30
0.0
 10
353.8206416168112
 20
-185.218124649006
 30
0.0
 10
333.6221307334195
 20
-185.218124649006
 30
0.0
 10
333.6221307334195
 20
-185.218124649006
 30
0.0
 10
333.6221307334195
 20
-185.218124649006
 30
0.0
 10
313.8358338523538
 20
-187.5713863834453
 30
0.0
 10
313.8358338523538
 20
-187.5713863834453
 30
0.0
 10
313.8358338523538
 20
-187.5713863834453
 30
0.0
 10
293.6373477384629
 20
-187.5713863834453
 30
0.0
 10
293.6373477384629
 20
-187.5713863834453
 30
0.0
 10
293.6373477384629
 20
-187.5713863834453
 30
0.0
 10
273.8510508573959
 20
-188.7480172506662
 30
0.0
 10
273.8510508573959
 20
-188.7480172506662
 30
0.0
 10
273.8510508573959
 20
-188.7480172506662
 30
0.0
 10
253.6525399740055
 20
-189.9246481178872
 30
0.0
 10
253.6525399740055
 20
-189.9246481178872
 30
0.0
 10
253.6525399740055
 20
-189.9246481178872
 30
0.0
 10
233.8662430929386
 20
-191.1012789851069
 30
0.0
 10
233.8662430929386
 20
-191.1012789851069
 30
0.0
 10
233.8662430929386
 20
-191.1012789851069
 30
0.0
 10
233.866715177495
 20
-191.1084054752187
 30
0.0
 10
233.866715177495
 20
-191.1084054752187
 30
0.0
 10
233.866715177495
 20
-191.1084054752187
 30
0.0
 10
233.8662427703385
 20
-171.967772534249
 30
0.0
 10
233.8662431931026
 20
-171.9677725958149
 30
0.0
 10
233.8662431931026
 20
-171.9677725958149
 30
0.0
 10
433.7902510535059
 20
-171.967883028807
 30
0.0
 10
433.7902510535059
 20
-171.967883028807
 30
0.0
 10
433.7902510535059
 20
-171.967883028807
 30
0.0
 10
433.8662416271048
 20
-171.9677687985326
 30
0.0
 10
433.8662416271048
 20
-171.9677687985326
 30
0.0
 10
433.8662416271048
 20
-171.9677687985326
 30
0.0
 10
433.8662427203392
 20
-185.2373869829846
 30
0.0
 10
433.8662427203392
 20
-185.2373869829846
 30
0.0
  0
POLYLINE
  5
A6
330
1F
100
AcDbEntity
  8
Layer 1
 62
    44
420
 10056723
370
    70
100
AcDb2dPolyline
 66
     1
 10
0.0
 20
0.0
 30
0.0
  0
VERTEX
  5
A7
330
A6
100
AcDbEntity
  8
Layer 1
 62
    44
420
 10056723
370
    70
100
AcDbVertex
100
AcDb2dVertex
 10
14.1869257024238
 20
-168.1311454650345
 30
0.0
  0
VERTEX
  5
A8
330
A6
100
AcDbEntity
  8
Layer 1
 62
    44
420
 10056723
370
    70
100
AcDbVertex
100
AcDb2dVertex
 10
33.97791801739032
 20
-168.1311454650345
 30
0.0
  0
VERTEX
  5
A9
330
A6
100
AcDbEntity
  8
Layer 1
 62
    44
420
 10056723
370
    70
100
AcDbVertex
100
AcDb2dVertex
 10
54.18122215609803
 20
-166.9545145978149
 30
0.0
  0
VERTEX
  5
AA
330
A6
100
AcDbEntity
  8
Layer 1
 62
    44
420
 10056723
370
    70
100
AcDbVertex
100
AcDb2dVertex
 10
73.97221447106455
 20
-163.4246219961533
 30
0.0
  0
VERTEX
  5
AB
330
A6
100
AcDbEntity
  8
Layer 1
 62
    44
420
 10056723
370
    70
100
AcDbVertex
100
AcDb2dVertex
 10
94.17549383439575
 20
-163.4246219961533
 30
0.0
  0
VERTEX
  5
AC
330
A6
100
AcDbEntity
  8
Layer 1
 62
    44
420
 10056723
370
    70
100
AcDbVertex
100
AcDb2dVertex
 10
113.9664861493623
 20
-163.4246219961533
 30
0.0
  0
VERTEX
  5
AD
330
A6
100
AcDbEntity
  8
Layer 1
 62
    44
420
 10056723
370
    70
100
AcDbVertex
100
AcDb2dVertex
 10
134.1697902880703
 20
-165.7778837305939
 30
0.0
  0
VERTEX
  5
AE
330
A6
100
AcDbEntity
  8
Layer 1
 62
    44
420
 10056723
370
    70
100
AcDbVertex
100
AcDb2dVertex
 10
154.3730944267799
 20
-165.7778837305939
 30
0.0
  0
VERTEX
  5
AF
330
A6
100
AcDbEntity
  8
Layer 1
 62
    44
420
 10056723
370
    70
100
AcDbVertex
100
AcDb2dVertex
 10
174.1640867417452
 20
-165.7778837305939
 30
0.0
  0
VERTEX
  5
B0
330
A6
100
AcDbEntity
  8
Layer 1
 62
    44
420
 10056723
370
    70
100
AcDbVertex
100
AcDb2dVertex
 10
194.3673877835312
 20
-166.9545145978149
 30
0.0
  0
VERTEX
  5
B1
330
A6
100
AcDbEntity
  8
Layer 1
 62
    44
420
 10056723
370
    70
100
AcDbVertex
100
AcDb2dVertex
 10
214.158377001576
 20
-165.7778837305939
 30
0.0
  0
VERTEX
  5
B2
330
A6
100
AcDbEntity
  8
Layer 1
 62
    44
420
 10056723
370
    70
100
AcDbVertex
100
AcDb2dVertex
 10
214.1869256524226
 20
-165.7819126484021
 30
0.0
  0
VERTEX
  5
B3
330
A6
100
AcDbEntity
  8
Layer 1
 62
    44
420
 10056723
370
    70
100
AcDbVertex
100
AcDb2dVertex
 10
214.1869236285064
 20
-147.5360698232913
 30
0.0
  0
VERTEX
  5
B4
330
A6
100
AcDbEntity
  8
Layer 1
 62
    44
420
 10056723
370
    70
100
AcDbVertex
100
AcDb2dVertex
 10
14.24597431068692
 20
-147.5442167620174
 30
0.0
  0
VERTEX
  5
B5
330
A6
100
AcDbEntity
  8
Layer 1
 62
    44
420
 10056723
370
    70
100
AcDbVertex
100
AcDb2dVertex
 10
14.2459742827666
 20
-147.5385839782728
 30
0.0
  0
VERTEX
  5
B6
330
A6
100
AcDbEntity
  8
Layer 1
 62
    44
420
 10056723
370
    70
100
AcDbVertex
100
AcDb2dVertex
 10
14.24597646969489
 20
-168.1325315846708
 30
0.0
  0
SEQEND
  5
B7
330
A6
100
AcDbEntity
  8
Layer 1
 62
    44
420
 10056723
370
    70
  0
INSERT
  5
B9
330
1F
100
AcDbEntity
  8
Layer 1
100
AcDbBlockReference
  2
block 2
 10
0.0
 20
0.0
 30
0.0
  0
POLYLINE
  5
CA
330
1F
100
AcDbEntity
  8
Layer 1
 62
   250
420
  1842203
370
    35
100
AcDb2dPolyline
 66
     1
 10
0.0
 20
0.0
 30
0.0
  0
VERTEX
  5
CB
330
CA
100
AcDbEntity
  8
Layer 1
 62
   250
420
  1842203
370
    35
100
AcDbVertex
100
AcDb2dVertex
 10
224.1869256499229
 20
92.47818029491272
 30
0.0
  0
VERTEX
  5
CC
330
CA
100
AcDbEntity
  8
Layer 1
 62
   250
420
  1842203
370
    35
100
AcDbVertex
100
AcDb2dVertex
 10
4.186925704923188
 20
92.47818029491272
 30
0.0
  0
VERTEX
  5
CD
330
CA
100
AcDbEntity
  8
Layer 1
 62
   250
420
  1842203
370
    35
100
AcDbVertex
100
AcDb2dVertex
 10
4.186925704923188
 20
292.4781802449125
 30
0.0
  0
VERTEX
  5
CE
330
CA
100
AcDbEntity
  8
Layer 1
 62
   250
420
  1842203
370
    35
100
AcDbVertex
100
AcDb2dVertex
 10
224.1869256499229
 20
292.4781802449125
 30
0.0
  0
VERTEX
  5
CF
330
CA
100
AcDbEntity
  8
Layer 1
 62
   250
420
  1842203
370
    35
100
AcDbVertex
100
AcDb2dVertex
 10
224.1869256499229
 20
92.47818029491272
 30
0.0
  0
SEQEND
  5
D0
330
CA
100
AcDbEntity
  8
Layer 1
 62
   250
420
  1842203
370
    35
  0
ENDSEC
  0
SECTION
  2
OBJECTS
  0
DICTIONARY
  5
C
330
0
100
AcDbDictionary
281
     1
  3
ACAD_GROUP
350
D
  3
ACAD_LAYOUT
350
1A
  3
ACAD_MATERIAL
350
3B
  3
ACAD_MLEADERSTYLE
350
D2
  3
ACAD_MLINESTYLE
350
17
  3
ACAD_PLOTSETTINGS
350
19
  3
ACAD_PLOTSTYLENAME
350
E
  3
ACAD_TABLESTYLE
350
D1
  3
ACAD_VISUALSTYLE
350
2A
  0
SUN
  5
3F
330
29
100
AcDbSun
 90
        1
290
     0
 63
     7
421
 16777215
 40
1.0
291
     1
 91
  2455826
 92
 54000000
292
     0
 70
     2
 71
   256
280
     1
  0
DICTIONARY
  5
D
102
{ACAD_REACTORS
330
C
102
}
330
C
100
AcDbDictionary
281
     1
  0
DICTIONARY
  5
1A
102
{ACAD_REACTORS
330
C
102
}
330
C
100
AcDbDictionary
281
     1
  3
Layout1
350
1E
  3
Layout2
350
26
  3
Model
350
22
  0
DICTIONARY
  5
3B
102
{ACAD_REACTORS
330
C
102
}
330
C
100
AcDbDictionary
281
     1
  3
ByBlock
350
3D
  3
ByLayer
350
3C
  3
Global
350
3E
  0
DICTIONARY
  5
D2
102
{ACAD_REACTORS
330
C
102
}
330
C
100
AcDbDictionary
281
     1
  0
DICTIONARY
  5
17
102
{ACAD_REACTORS
330
C
102
}
330
C
100
AcDbDictionary
281
     1
  3
Standard
350
18
  0
DICTIONARY
  5
19
102
{ACAD_REACTORS
330
C
102
}
330
C
100
AcDbDictionary
281
     1
  0
ACDBDICTIONARYWDFLT
  5
E
102
{ACAD_REACTORS
330
C
102
}
330
C
100
AcDbDictionary
281
     1
  3
Normal
350
F
100
AcDbDictionaryWithDefault
340
F
  0
DICTIONARY
  5
D1
102
{ACAD_REACTORS
330
C
102
}
330
C
100
AcDbDictionary
281
     1
  0
DICTIONARY
  5
2A
102
{ACAD_REACTORS
330
C
102
}
330
C
100
AcDbDictionary
281
     1
  3
2dWireframe
350
2F
  3
3D Hidden
350
31
  3
3dWireframe
350
30
  3
Basic
350
32
  3
Brighten
350
36
  3
ColorChange
350
3A
  3
Conceptual
350
34
  3
Dim
350
35
  3
Facepattern
350
39
  3
Flat
350
2B
  3
FlatWithEdges
350
2C
  3
Gouraud
350
2D
  3
GouraudWithEdges
350
2E
  3
Linepattern
350
38
  3
Realistic
350
33
  3
Thicken
350
37
  0
LAYOUT
  5
1E
102
{ACAD_REACTORS
330
1A
102
}
330
1A
100
AcDbPlotSettings
  1

  2
none_device
  4

  6

 40
0.0
 41
0.0
 42
0.0
 43
0.0
 44
0.0
 45
0.0
 46
0.0
 47
0.0
 48
0.0
 49
0.0
140
0.0
141
0.0
142
1.0
143
1.0
 70
   688
 72
     0
 73
     0
 74
     5
  7

 75
    16
 76
     0
 77
     2
 78
   300
147
1.0
148
0.0
149
0.0
100
AcDbLayout
  1
Layout1
 70
     1
 71
     1
 10
0.0
 20
0.0
 11
12.0
 21
9.0
 12
0.0
 22
0.0
 32
0.0
 14
1.000000000000000E+20
 24
1.000000000000000E+20
 34
1.000000000000000E+20
 15
-1.000000000000000E+20
 25
-1.000000000000000E+20
 35
-1.000000000000000E+20
146
0.0
 13
0.0
 23
0.0
 33
0.0
 16
1.0
 26
0.0
 36
0.0
 17
0.0
 27
1.0
 37
0.0
 76
     0
330
1B
  0
LAYOUT
  5
26
102
{ACAD_REACTORS
330
1A
102
}
330
1A
100
AcDbPlotSettings
  1

  2
none_device
  4

  6

 40
0.0
 41
0.0
 42
0.0
 43
0.0
 44
0.0
 45
0.0
 46
0.0
 47
0.0
 48
0.0
 49
0.0
140
0.0
141
0.0
142
1.0
143
1.0
 70
   688
 72
     0
 73
     0
 74
     5
  7

 75
    16
 76
     0
 77
     2
 78
   300
147
1.0
148
0.0
149
0.0
100
AcDbLayout
  1
Layout2
 70
     1
 71
     2
 10
0.0
 20
0.0
 11
0.0
 21
0.0
 12
0.0
 22
0.0
 32
0.0
 14
0.0
 24
0.0
 34
0.0
 15
0.0
 25
0.0
 35
0.0
146
0.0
 13
0.0
 23
0.0
 33
0.0
 16
1.0
 26
0.0
 36
0.0
 17
0.0
 27
1.0
 37
0.0
 76
     0
330
23
  0
LAYOUT
  5
22
102
{ACAD_REACTORS
330
1A
102
}
330
1A
100
AcDbPlotSettings
  1

  2
none_device
  4

  6

 40
0.0
 41
0.0
 42
0.0
 43
0.0
 44
0.0
 45
0.0
 46
0.0
 47
0.0
 48
0.0
 49
0.0
140
0.0
141
0.0
142
1.0
143
1.0
 70
  1712
 72
     0
 73
     0
 74
     0
  7

 75
     0
 76
     0
 77
     2
 78
   300
147
1.0
148
0.0
149
0.0
100
AcDbLayout
  1
Model
 70
     1
 71
     0
 10
0.0
 20
0.0
 11
12.0
 21
9.0
 12
0.0
 22
0.0
 32
0.0
 14
1.000000000000000E+20
 24
1.000000000000000E+20
 34
1.000000000000000E+20
 15
-1.000000000000000E+20
 25
-1.000000000000000E+20
 35
-1.000000000000000E+20
146
0.0
 13
0.0
 23
0.0
 33
0.0
 16
1.0
 26
0.0
 36
0.0
 17
0.0
 27
1.0
 37
0.0
 76
     0
330
1F
331
29
  0
MATERIAL
  5
3D
102
{ACAD_REACTORS
330
3B
102
}
330
3B
100
AcDbMaterial
  1
ByBlock
 72
     1
 94
      127
  0
MATERIAL
  5
3C
102
{ACAD_REACTORS
330
3B
102
}
330
3B
100
AcDbMaterial
  1
ByLayer
 72
     1
 94
      127
  0
MATERIAL
  5
3E
102
{ACAD_REACTORS
330
3B
102
}
330
3B
100
AcDbMaterial
  1
Global
 72
     1
 94
      127
  0
MLINESTYLE
  5
18
102
{ACAD_REACTORS
330
17
102
}
330
17
100
AcDbMlineStyle
  2
Standard
 70
     0
  3

 62
   256
 51
90.0
 52
90.0
 71
     2
 49
0.5
 62
   256
  6
BYLAYER
 49
-0.5
 62
   256
  6
BYLAYER
  0
ACDBPLACEHOLDER
  5
F
102
{ACAD_REACTORS
330
E
102
}
330
E
  0
VISUALSTYLE
  5
2F
102
{ACAD_REACTORS
330
2A
102
}
330
2A
100
AcDbVisualStyle
  2
2dWireframe
 70
     4
177
     2
291
     0
 71
     0
176
     1
 72
     2
176
     1
 73
     0
176
     1
 90
        0
176
     1
 40
-0.6
176
     1
 41
-30.0
176
     1
 62
     5
 63
     7
421
 16777215
176
     1
 74
     1
176
     1
 91
        4
176
     1
 64
     7
176
     1
 65
   257
176
     1
 75
     1
176
     1
175
     1
176
     1
 42
1.0
176
     1
 92
        0
176
     1
 66
   257
176
     1
 43
1.0
176
     1
 76
     1
176
     1
 77
     6
176
     1
 78
     2
176
     1
 67
     7
176
     1
 79
     5
176
     1
170
     0
176
     1
171
     0
176
     1
290
     0
176
     1
 93
        1
176
     1
 44
0.0
176
     1
173
     0
176
     1
  0
VISUALSTYLE
  5
31
102
{ACAD_REACTORS
330
2A
102
}
330
2A
100
AcDbVisualStyle
  2
3D Hidden
 70
     6
177
     2
291
     0
 71
     1
176
     1
 72
     2
176
     1
 73
     2
176
     1
 90
        0
176
     1
 40
-0.6
176
     1
 41
-30.0
176
     1
 62
     5
 63
     7
421
 16777215
176
     1
 74
     2
176
     1
 91
        2
176
     1
 64
     7
176
     1
 65
   257
176
     1
 75
     2
176
     1
175
     1
176
     1
 42
40.0
176
     1
 92
        0
176
     1
 66
   257
176
     1
 43
1.0
176
     1
 76
     1
176
     1
 77
     6
176
     1
 78
     2
176
     1
 67
     7
176
     1
 79
     3
176
     1
170
     0
176
     1
171
     0
176
     1
290
     0
176
     1
 93
        1
176
     1
 44
0.0
176
     1
173
     0
176
     1
  0
VISUALSTYLE
  5
30
102
{ACAD_REACTORS
330
2A
102
}
330
2A
100
AcDbVisualStyle
  2
3dWireframe
 70
     5
177
     2
291
     0
 71
     0
176
     1
 72
     2
176
     1
 73
     0
176
     1
 90
        0
176
     1
 40
-0.6
176
     1
 41
-30.0
176
     1
 62
     5
 63
     7
421
 16777215
176
     1
 74
     1
176
     1
 91
        4
176
     1
 64
     7
176
     1
 65
   257
176
     1
 75
     1
176
     1
175
     1
176
     1
 42
1.0
176
     1
 92
        0
176
     1
 66
   257
176
     1
 43
1.0
176
     1
 76
     1
176
     1
 77
     6
176
     1
 78
     2
176
     1
 67
     7
176
     1
 79
     5
176
     1
170
     0
176
     1
171
     0
176
     1
290
     0
176
     1
 93
        1
176
     1
 44
0.0
176
     1
173
     0
176
     1
  0
VISUALSTYLE
  5
32
102
{ACAD_REACTORS
330
2A
102
}
330
2A
100
AcDbVisualStyle
  2
Basic
 70
     7
177
     2
291
     1
 71
     1
176
     1
 72
     0
176
     1
 73
     1
176
     1
 90
        0
176
     1
 40
-0.6
176
     1
 41
-30.0
176
     1
 62
     5
 63
     7
421
 16777215
176
     1
 74
     0
176
     1
 91
        4
176
     1
 64
     7
176
     1
 65
   257
176
     1
 75
     1
176
     1
175
     1
176
     1
 42
1.0
176
     1
 92
        8
176
     1
 66
     7
176
     1
 43
1.0
176
     1
 76
     1
176
     1
 77
     6
176
     1
 78
     2
176
     1
 67
     7
176
     1
 79
     5
176
     1
170
     0
176
     1
171
     0
176
     1
290
     0
176
     1
 93
        1
176
     1
 44
0.0
176
     1
173
     0
176
     1
  0
VISUALSTYLE
  5
36
102
{ACAD_REACTORS
330
2A
102
}
330
2A
100
AcDbVisualStyle
  2
Brighten
 70
    12
177
     2
291
     1
 71
     2
176
     1
 72
     2
176
     1
 73
     0
176
     1
 90
        0
176
     1
 40
-0.6
176
     1
 41
-30.0
176
     1
 62
     5
 63
     7
421
 16777215
176
     1
 74
     1
176
     1
 91
        4
176
     1
 64
     7
176
     1
 65
   257
176
     1
 75
     1
176
     1
175
     1
176
     1
 42
1.0
176
     1
 92
        8
176
     1
 66
     7
176
     1
 43
1.0
176
     1
 76
     1
176
     1
 77
     6
176
     1
 78
     2
176
     1
 67
     7
176
     1
 79
     5
176
     1
170
     0
176
     1
171
     0
176
     1
290
     0
176
     1
 93
        1
176
     1
 44
50.0
176
     1
173
     0
176
     1
  0
VISUALSTYLE
  5
3A
102
{ACAD_REACTORS
330
2A
102
}
330
2A
100
AcDbVisualStyle
  2
ColorChange
 70
    16
177
     2
291
     1
 71
     2
176
     1
 72
     2
176
     1
 73
     3
176
     1
 90
        0
176
     1
 40
-0.6
176
     1
 41
-30.0
176
     1
 62
     5
 63
     8
421
  8421504
176
     1
 74
     1
176
     1
 91
        4
176
     1
 64
     7
176
     1
 65
   257
176
     1
 75
     1
176
     1
175
     1
176
     1
 42
1.0
176
     1
 92
        8
176
     1
 66
     8
424
  8421504
176
     1
 43
1.0
176
     1
 76
     1
176
     1
 77
     6
176
     1
 78
     2
176
     1
 67
     7
176
     1
 79
     5
176
     1
170
     0
176
     1
171
     0
176
     1
290
     0
176
     1
 93
        1
176
     1
 44
0.0
176
     1
173
     0
176
     1
  0
VISUALSTYLE
  5
34
102
{ACAD_REACTORS
330
2A
102
}
330
2A
100
AcDbVisualStyle
  2
Conceptual
 70
     9
177
     2
291
     0
 71
     3
176
     1
 72
     2
176
     1
 73
     0
176
     1
 90
        0
176
     1
 40
-0.6
176
     1
 41
-30.0
176
     1
 62
     5
 63
     7
421
 16777215
176
     1
 74
     2
176
     1
 91
        2
176
     1
 64
     7
176
     1
 65
   257
176
     1
 75
     1
176
     1
175
     1
176
     1
 42
40.0
176
     1
 92
        8
176
     1
 66
     7
176
     1
 43
1.0
176
     1
 76
     1
176
     1
 77
     6
176
     1
 78
     2
176
     1
 67
     7
176
     1
 79
     3
176
     1
170
     0
176
     1
171
     0
176
     1
290
     0
176
     1
 93
        1
176
     1
 44
0.0
176
     1
173
     0
176
     1
  0
VISUALSTYLE
  5
35
102
{ACAD_REACTORS
330
2A
102
}
330
2A
100
AcDbVisualStyle
  2
Dim
 70
    11
177
     2
291
     1
 71
     2
176
     1
 72
     2
176
     1
 73
     0
176
     1
 90
        0
176
     1
 40
-0.6
176
     1
 41
-30.0
176
     1
 62
     5
 63
     7
421
 16777215
176
     1
 74
     1
176
     1
 91
        4
176
     1
 64
     7
176
     1
 65
   257
176
     1
 75
     1
176
     1
175
     1
176
     1
 42
1.0
176
     1
 92
        8
176
     1
 66
     7
176
     1
 43
1.0
176
     1
 76
     1
176
     1
 77
     6
176
     1
 78
     2
176
     1
 67
     7
176
     1
 79
     5
176
     1
170
     0
176
     1
171
     0
176
     1
290
     0
176
     1
 93
        1
176
     1
 44
-50.0
176
     1
173
     0
176
     1
  0
VISUALSTYLE
  5
39
102
{ACAD_REACTORS
330
2A
102
}
330
2A
100
AcDbVisualStyle
  2
Facepattern
 70
    15
177
     2
291
     1
 71
     2
176
     1
 72
     2
176
     1
 73
     0
176
     1
 90
        0
176
     1
 40
-0.6
176
     1
 41
-30.0
176
     1
 62
     5
 63
     7
421
 16777215
176
     1
 74
     1
176
     1
 91
        4
176
     1
 64
     7
176
     1
 65
   257
176
     1
 75
     1
176
     1
175
     1
176
     1
 42
1.0
176
     1
 92
        8
176
     1
 66
     7
176
     1
 43
1.0
176
     1
 76
     1
176
     1
 77
     6
176
     1
 78
     2
176
     1
 67
     7
176
     1
 79
     5
176
     1
170
     0
176
     1
171
     0
176
     1
290
     0
176
     1
 93
        1
176
     1
 44
0.0
176
     1
173
     0
176
     1
  0
VISUALSTYLE
  5
2B
102
{ACAD_REACTORS
330
2A
102
}
330
2A
100
AcDbVisualStyle
  2
Flat
 70
     0
177
     2
291
     1
 71
     2
176
     1
 72
     1
176
     1
 73
     1
176
     1
 90
        2
176
     1
 40
-0.6
176
     1
 41
30.0
176
     1
 62
     5
 63
     7
421
 16777215
176
     1
 74
     0
176
     1
 91
        4
176
     1
 64
     7
176
     1
 65
   257
176
     1
 75
     1
176
     1
175
     1
176
     1
 42
1.0
176
     1
 92
        8
176
     1
 66
     7
176
     1
 43
1.0
176
     1
 76
     1
176
     1
 77
     6
176
     1
 78
     2
176
     1
 67
     7
176
     1
 79
     5
176
     1
170
     0
176
     1
171
     0
176
     1
290
     0
176
     1
 93
       13
176
     1
 44
0.0
176
     1
173
     0
176
     1
  0
VISUALSTYLE
  5
2C
102
{ACAD_REACTORS
330
2A
102
}
330
2A
100
AcDbVisualStyle
  2
FlatWithEdges
 70
     1
177
     2
291
     1
 71
     2
176
     1
 72
     1
176
     1
 73
     1
176
     1
 90
        2
176
     1
 40
-0.6
176
     1
 41
30.0
176
     1
 62
     5
 63
     7
421
 16777215
176
     1
 74
     1
176
     1
 91
        4
176
     1
 64
     7
176
     1
 65
   257
176
     1
 75
     1
176
     1
175
     1
176
     1
 42
1.0
176
     1
 92
        0
176
     1
 66
   257
176
     1
 43
1.0
176
     1
 76
     1
176
     1
 77
     6
176
     1
 78
     2
176
     1
 67
     7
176
     1
 79
     5
176
     1
170
     0
176
     1
171
     0
176
     1
290
     0
176
     1
 93
       13
176
     1
 44
0.0
176
     1
173
     0
176
     1
  0
VISUALSTYLE
  5
2D
102
{ACAD_REACTORS
330
2A
102
}
330
2A
100
AcDbVisualStyle
  2
Gouraud
 70
     2
177
     2
291
     1
 71
     2
176
     1
 72
     2
176
     1
 73
     1
176
     1
 90
        2
176
     1
 40
-0.6
176
     1
 41
30.0
176
     1
 62
     5
 63
     7
421
 16777215
176
     1
 74
     0
176
     1
 91
        4
176
     1
 64
     7
176
     1
 65
   257
176
     1
 75
     1
176
     1
175
     1
176
     1
 42
1.0
176
     1
 92
        0
176
     1
 66
     7
176
     1
 43
1.0
176
     1
 76
     1
176
     1
 77
     6
176
     1
 78
     2
176
     1
 67
     7
176
     1
 79
     5
176
     1
170
     0
176
     1
171
     0
176
     1
290
     0
176
     1
 93
       13
176
     1
 44
0.0
176
     1
173
     0
176
     1
  0
VISUALSTYLE
  5
2E
102
{ACAD_REACTORS
330
2A
102
}
330
2A
100
AcDbVisualStyle
  2
GouraudWithEdges
 70
     3
177
     2
291
     1
 71
     2
176
     1
 72
     2
176
     1
 73
     1
176
     1
 90
        2
176
     1
 40
-0.6
176
     1
 41
30.0
176
     1
 62
     5
 63
     7
421
 16777215
176
     1
 74
     1
176
     1
 91
        4
176
     1
 64
     7
176
     1
 65
   257
176
     1
 75
     1
176
     1
175
     1
176
     1
 42
1.0
176
     1
 92
        0
176
     1
 66
   257
176
     1
 43
1.0
176
     1
 76
     1
176
     1
 77
     6
176
     1
 78
     2
176
     1
 67
     7
176
     1
 79
     5
176
     1
170
     0
176
     1
171
     0
176
     1
290
     0
176
     1
 93
       13
176
     1
 44
0.0
176
     1
173
     0
176
     1
  0
VISUALSTYLE
  5
38
102
{ACAD_REACTORS
330
2A
102
}
330
2A
100
AcDbVisualStyle
  2
Linepattern
 70
    14
177
     2
291
     1
 71
     2
176
     1
 72
     2
176
     1
 73
     0
176
     1
 90
        0
176
     1
 40
-0.6
176
     1
 41
-30.0
176
     1
 62
     5
 63
     7
421
 16777215
176
     1
 74
     1
176
     1
 91
        4
176
     1
 64
     7
176
     1
 65
   257
176
     1
 75
     7
176
     1
175
     7
176
     1
 42
1.0
176
     1
 92
        8
176
     1
 66
     7
176
     1
 43
1.0
176
     1
 76
     1
176
     1
 77
     6
176
     1
 78
     2
176
     1
 67
     7
176
     1
 79
     5
176
     1
170
     0
176
     1
171
     0
176
     1
290
     0
176
     1
 93
        1
176
     1
 44
0.0
176
     1
173
     0
176
     1
  0
VISUALSTYLE
  5
33
102
{ACAD_REACTORS
330
2A
102
}
330
2A
100
AcDbVisualStyle
  2
Realistic
 70
     8
177
     2
291
     0
 71
     2
176
     1
 72
     2
176
     1
 73
     0
176
     1
 90
        0
176
     1
 40
-0.6
176
     1
 41
-30.0
176
     1
 62
     5
 63
     7
421
 16777215
176
     1
 74
     1
176
     1
 91
        0
176
     1
 64
     7
176
     1
 65
   257
176
     1
 75
     1
176
     1
175
     1
176
     1
 42
1.0
176
     1
 92
        8
176
     1
 66
     8
424
  7895160
176
     1
 43
1.0
176
     1
 76
     1
176
     1
 77
     6
176
     1
 78
     2
176
     1
 67
     7
176
     1
 79
     5
176
     1
170
     0
176
     1
171
     0
176
     1
290
     0
176
     1
 93
       13
176
     1
 44
0.0
176
     1
173
     0
176
     1
  0
VISUALSTYLE
  5
37
102
{ACAD_REACTORS
330
2A
102
}
330
2A
100
AcDbVisualStyle
  2
Thicken
 70
    13
177
     2
291
     1
 71
     2
176
     1
 72
     2
176
     1
 73
     0
176
     1
 90
        0
176
     1
 40
-0.6
176
     1
 41
-30.0
176
     1
 62
     5
 63
     7
421
 16777215
176
     1
 74
     1
176
     1
 91
        4
176
     1
 64
     7
176
     1
 65
   257
176
     1
 75
     1
176
     1
175
     1
176
     1
 42
1.0
176
     1
 92
       12
176
     1
 66
     7
176
     1
 43
1.0
176
     1
 76
     1
176
     1
 77
     6
176
     1
 78
     2
176
     1
 67
     7
176
     1
 79
     5
176
     1
170
     0
176
     1
171
     0
176
     1
290
     0
176
     1
 93
        1
176
     1
 44
0.0
176
     1
173
     0
176
     1
  0
ENDSEC
  0
EOF
