<?xml version="1.0" encoding="utf-8"?>
<!-- Generator: Adobe Illustrator 22.1.0, SVG Export Plug-In . SVG Version: 6.00 Build 0)  -->
<svg version="1.0" id="Layer_1" xmlns="http://www.w3.org/2000/svg" xmlns:xlink="http://www.w3.org/1999/xlink" x="0px" y="0px"
	 viewBox="0 0 512 512" enable-background="new 0 0 512 512" xml:space="preserve">
<path fill="#EA0022" d="M491.9,156.3C479,125.9,460.5,98.5,437,75c-23.5-23.5-50.9-42-81.4-54.8C324.1,6.8,290.6,0,256,0
	c-34.6,0-68.1,6.8-99.6,20.1C125.9,33,98.5,51.5,75,75c-23.5,23.5-42,50.9-54.8,81.4C6.8,187.9,0,221.4,0,256
	c0,34.6,6.8,68.1,20.1,99.7C33,386.1,51.5,413.5,75,437c23.5,23.5,50.9,42,81.4,54.9c31.6,13.3,65.1,20.1,99.6,20.1
	c34.6,0,68.1-6.8,99.7-20.1c30.5-12.9,57.9-31.3,81.4-54.9c23.5-23.5,42-50.9,54.8-81.4c13.3-31.6,20.1-65.1,20.1-99.7
	C512,221.4,505.2,187.9,491.9,156.3z"/>
<path fill="#FFFFFF" d="M0.1,263.2c0.9,32,7.6,63.1,20,92.5C33,386.1,51.5,413.5,75,437c23.5,23.5,50.9,42,81.4,54.9
	c31.6,13.3,65.1,20.1,99.6,20.1c34.6,0,68.1-6.8,99.7-20.1c30.5-12.9,57.9-31.3,81.4-54.9c23.5-23.5,42-50.9,54.8-81.4
	c12.4-29.4,19.2-60.5,20-92.5H0.1z"/>
<path d="M510.8,281.2c0.8-8.3,1.2-16.8,1.2-25.2c0-9.5-0.5-19-1.5-28.3c-12.7,2-31,4.5-54,7.1c-43.7,4.8-113.9,10.6-200.5,10.6
	c-86.6,0-156.8-5.8-200.5-10.6c-23-2.5-41.3-5.1-54-7.1C0.5,237,0,246.5,0,256c0,8.5,0.4,16.9,1.2,25.2
	c41.5,6.3,133,17.4,254.8,17.4S469.2,287.5,510.8,281.2z"/>
<path fill="#FFFFFF" d="M309.3,266.7c0,29.5-23.9,53.3-53.3,53.3c-29.5,0-53.3-23.9-53.3-53.3c0-29.5,23.9-53.3,53.3-53.3
	C285.4,213.3,309.3,237.2,309.3,266.7z"/>
<path d="M256,170.7c-52.9,0-96,43.1-96,96s43.1,96,96,96s96-43.1,96-96C352,213.7,308.9,170.7,256,170.7z M256,309.3
	c-23.5,0-42.7-19.2-42.7-42.7c0-23.5,19.1-42.7,42.7-42.7c23.5,0,42.7,19.1,42.7,42.7C298.6,290.2,279.5,309.3,256,309.3z"/>
</svg>
