<?xml version="1.0" encoding="iso-8859-1"?>
<!-- Generator: Adobe Illustrator 19.0.0, SVG Export Plug-In . SVG Version: 6.00 Build 0)  -->
<svg version="1.1" id="Capa_1" xmlns="http://www.w3.org/2000/svg" xmlns:xlink="http://www.w3.org/1999/xlink" x="0px" y="0px"
	 viewBox="0 0 512 512" style="enable-background:new 0 0 512 512;" xml:space="preserve">
<g>
	<g>
		<path d="M256,0C114.844,0,0,114.844,0,256s114.844,256,256,256s256-114.844,256-256S397.156,0,256,0z M490.126,245.333H383.46
			c-1.616-19.454-7.612-37.643-16.979-53.667l87.434-61.225C475.259,163.965,488.219,203.194,490.126,245.333z M441.637,112.996
			l-87.332,61.155c-12.096-14.504-27.382-26.201-44.707-34.233l36.579-100.51C384.103,55.257,416.848,80.892,441.637,112.996z
			 M362.667,256c0,58.813-47.854,106.667-106.667,106.667S149.333,314.813,149.333,256S197.188,149.333,256,149.333
			S362.667,197.188,362.667,256z M256,21.333c24.43,0,47.99,3.773,70.154,10.732l-36.592,100.549
			C278.845,129.695,267.629,128,256,128s-22.845,1.695-33.561,4.615L185.846,32.065C208.01,25.107,231.57,21.333,256,21.333z
			 M165.823,39.408l36.579,100.51c-17.326,8.033-32.611,19.729-44.707,34.233l-87.332-61.155
			C95.152,80.892,127.897,55.257,165.823,39.408z M58.086,130.441l87.434,61.225c-9.367,16.023-15.363,34.212-16.979,53.667H21.874
			C23.781,203.194,36.741,163.965,58.086,130.441z M21.874,266.667H128.54c1.616,19.454,7.612,37.643,16.979,53.667l-87.434,61.225
			C36.741,348.035,23.781,308.806,21.874,266.667z M70.363,399.004l87.332-61.155c12.096,14.504,27.382,26.201,44.707,34.233
			l-36.579,100.51C127.897,456.744,95.152,431.108,70.363,399.004z M256,490.667c-24.43,0-47.99-3.773-70.154-10.732l36.592-100.549
			C233.155,382.305,244.371,384,256,384s22.845-1.695,33.561-4.615l36.592,100.549C303.99,486.893,280.43,490.667,256,490.667z
			 M346.177,472.592l-36.579-100.51c17.326-8.033,32.611-19.729,44.707-34.233l87.332,61.155
			C416.848,431.108,384.103,456.744,346.177,472.592z M453.914,381.559l-87.434-61.225c9.367-16.023,15.363-34.212,16.979-53.667
			h106.667C488.219,308.806,475.259,348.035,453.914,381.559z"/>
	</g>
</g>
<g>
</g>
<g>
</g>
<g>
</g>
<g>
</g>
<g>
</g>
<g>
</g>
<g>
</g>
<g>
</g>
<g>
</g>
<g>
</g>
<g>
</g>
<g>
</g>
<g>
</g>
<g>
</g>
<g>
</g>
</svg>
